<?xml version="1.0" encoding="UTF-8"?>
<svg width="80" height="70" viewBox="0 0 8390.731 7384.654" xmlns="http://www.w3.org/2000/svg">
 <path transform="matrix(105.5 0 0 105.5 -24.437 0)" d="m40-0.03125c-1.2553 0-2.5016 0.6258-3.4062 1.875-11.992 20.758-23.945 41.55-35.969 62.281-0.63546 1.4121-0.56695 2.816 0.0625 3.9062 0.63359 1.0974 1.8506 1.8515 3.4062 2h71.812c1.5658-0.15043 2.776-0.9243 3.4062-2.0312 0.61272-1.0762 0.67419-2.4601 0.0625-3.8438-11.964-20.771-23.981-41.542-35.969-62.312-0.9046-1.2492-2.151-1.875-3.4062-1.875z" fill="#a7d2a7"/>
 <path transform="matrix(105.5 0 0 105.5 -24.437 0)" d="m40 2.125c-0.57542-1e-5 -1.1398 0.26413-1.5 0.8125-12 20.747-24.006 41.506-35.969 62.281-0.60801 1.1884 0.22088 2.5788 1.5625 2.625h71.812c1.3282-0.04538 2.1436-1.4066 1.5625-2.5938-11.998-20.764-23.956-41.566-35.969-62.312-0.3602-0.54834-0.92458-0.81249-1.5-0.8125z" fill="#3c4c3c"/>
 <path d="m4195.0625,934.875c-1.695.07512-3.2363,1.00462-4.0937,2.46875l-3327.7188,5763.81245c-.89127,1.5443-.8928,3.4464-.00399,4.9921s2.53344,2.5013 4.31649,2.5079h6654.7187c1.6106.2529 3.2433-.2952 4.375-1.4687l.1563-.125c.0646-.0711.1271-.144.1875-.2187 .0427-.0513.0844-.1034.125-.1563 .0545-.0818.1066-.1651.1562-.25 .0431-.0616.0847-.1241.125-.1875 .044-.0822.0857-.1655.125-.25 .0326-.0618.0638-.1244.0938-.1875 .0445-.0925.0862-.1863.125-.2813 .0221-.062.0429-.1245.0625-.1874 .034-.0928.0653-.1866.0937-.2813 .0116-.0623.0221-.1248.0313-.1875 .0858-.3272.1382-.6622.1563-1 .0592-1.2355-.3416-2.449-1.125-3.4062l-.0626-.0938-3327.25-5763.03125c-.9469-1.61945-2.7206-2.57266-4.5937-2.46875z" fill="#c9fcc9"/>
 <path d="m4195.3 5597.6c-87.72 0-175.51 28.232-241.53 85-66.025 56.768-110.06 142.18-110.06 255.22s44.038 198.45 110.06 255.22c66.025 56.768 153.81 85.031 241.53 85.031s175.51-28.263 241.53-85.031 110.06-142.18 110.06-255.22-44.037-198.45-110.06-255.22-153.81-85-241.53-85z"/>
 <path transform="matrix(105.5 0 0 105.5 -24.437 0)" d="m39.875 23.312c-2.5603 0.06952-4.7708 2.4649-4.3438 5.0625 0.94189 7.0002 1.9014 13.999 2.8438 21 0.12342 0.91181 0.89853 1.3699 1.6562 1.375 0.37886 0.00256 0.73439-0.11241 1.0312-0.34375s0.51355-0.56546 0.5625-1.0312c0.94411-6.9996 1.9082-14.003 2.8438-21 0.34655-2.7065-1.8627-5.1367-4.5938-5.0625z"/>
</svg>
